<svg width="100" height="30" viewBox="0 0 100 30" fill="none" xmlns="http://www.w3.org/2000/svg">
<path d="M10.8125 4.56335H13.5961L5.24545 15.0001H2.46191L10.8125 4.56335Z" fill="#B13B49"/>
<path d="M74.5127 4.56335H77.2963L68.9456 15.0001H66.1621L74.5127 4.56335Z" fill="#B13B49"/>
<path d="M13.5965 25.4369L10.8131 25.4369L2.4628 15.0001L5.24608 15.0001L13.5965 25.4369Z" fill="#B13B49"/>
<path d="M77.2965 25.4369L74.5131 25.4369L66.1627 15.0001L68.946 15.0001L77.2965 25.4369Z" fill="#B13B49"/>
<path d="M27.514 22.8275L26.1216 25.4367L14.9878 4.56325L17.7713 4.56318L27.514 22.8275Z" fill="#B13B49"/>
<path d="M33.0815 20.2185L33.0815 25.4369L21.8274 4.5632L24.6109 4.56312L33.0815 20.2185Z" fill="#B13B49"/>
<path d="M33.0812 25.4368L33.0812 20.2184L41.4312 4.56333L44.2153 4.56335L33.0812 25.4368Z" fill="#B13B49"/>
<path d="M46.9996 7.17236L46.9996 4.56316L63.6996 4.56337L63.6996 7.17243L46.9996 7.17236Z" fill="#B13B49"/>
<path d="M83.1846 22.8275L80.4015 22.8276L80.4012 4.56292L83.1863 4.56287L83.1846 22.8275Z" fill="#B13B49"/>
<path d="M94.3202 22.8275L91.5367 22.8276L91.5363 4.56319L94.3188 4.56324L94.3202 22.8275Z" fill="#B13B49"/>
<path d="M83.186 25.4362L83.1859 22.8272L91.5355 22.8275L91.5355 25.4367L83.186 25.4362Z" fill="#B13B49"/>
<path d="M80.4036 22.8276C80.4027 20.2186 83.1844 22.8277 83.1844 22.8277L83.1845 24.1323L83.1849 25.4369C83.1849 25.4369 80.4045 25.4366 80.4036 22.8276Z" fill="#B13B49"/>
<path d="M94.3186 22.8277C94.3184 20.2185 91.535 21.523 91.535 21.523L91.5349 24.1323V25.4369C91.5349 25.4369 94.3187 25.4369 94.3186 22.8277Z" fill="#B13B49"/>
<path d="M47.0015 16.3047L47.0015 13.6955L60.9167 13.6953L60.9181 16.3047L47.0015 16.3047Z" fill="#B13B49"/>
<path d="M46.9999 25.4367L46.9999 22.8275L63.6996 22.8275L63.6996 25.4367L46.9999 25.4367Z" fill="#B13B49"/>
</svg>
