<svg width="141" height="40" viewBox="0 0 141 40" fill="none" xmlns="http://www.w3.org/2000/svg">
<path d="M15.2455 6.08447H19.1703L7.39598 20.0002H3.47119L15.2455 6.08447Z" fill="#B13B49"/>
<path d="M105.063 6.08447H108.988L97.2134 20.0002H93.2886L105.063 6.08447Z" fill="#B13B49"/>
<path d="M19.171 33.9158L15.2464 33.9159L3.47245 20.0001L7.39688 20.0001L19.171 33.9158Z" fill="#B13B49"/>
<path d="M108.988 33.9158L105.063 33.9159L93.2893 20.0001L97.2138 20.0001L108.988 33.9158Z" fill="#B13B49"/>
<path d="M38.7948 30.4367L36.8315 33.9157L21.1328 6.08438L25.0576 6.08428L38.7948 30.4367Z" fill="#B13B49"/>
<path d="M46.6447 26.9579L46.6447 33.9157L30.7764 6.08418L34.7011 6.08408L46.6447 26.9579Z" fill="#B13B49"/>
<path d="M46.6451 33.9158L46.6451 26.9579L58.4186 6.08444L62.3442 6.08447L46.6451 33.9158Z" fill="#B13B49"/>
<path d="M66.2694 9.56302L66.2694 6.08409L89.8164 6.08437L89.8164 9.56311L66.2694 9.56302Z" fill="#B13B49"/>
<path d="M117.29 30.4366L113.366 30.4367L113.366 6.08377L117.293 6.08371L117.29 30.4366Z" fill="#B13B49"/>
<path d="M132.992 30.4366L129.067 30.4367L129.066 6.08418L132.989 6.08424L132.992 30.4366Z" fill="#B13B49"/>
<path d="M117.292 33.915L117.292 30.4363L129.065 30.4367L129.065 33.9157L117.292 33.915Z" fill="#B13B49"/>
<path d="M113.369 30.4369C113.368 26.9582 117.29 30.437 117.29 30.437L117.29 32.1765L117.291 33.9158C117.291 33.9158 113.37 33.9155 113.369 30.4369Z" fill="#B13B49"/>
<path d="M132.989 30.437C132.989 26.958 129.065 28.6974 129.065 28.6974L129.064 32.1765V33.9159C129.064 33.9159 132.99 33.9159 132.989 30.437Z" fill="#B13B49"/>
<path d="M66.2722 21.7396L66.2722 18.2607L85.8926 18.2605L85.8945 21.7397L66.2722 21.7396Z" fill="#B13B49"/>
<path d="M66.2698 33.9158L66.2698 30.4369L89.8164 30.4368L89.8164 33.9158L66.2698 33.9158Z" fill="#B13B49"/>
</svg>
