<svg width="13" height="13" viewBox="0 0 13 13" fill="none" xmlns="http://www.w3.org/2000/svg">
<g clip-path="url(#clip0_63_588)">
<path d="M4.59882 11.5559C4.59882 11.5559 4.19892 9.93405 4.99871 9.12311C4.99871 9.12311 3.39913 9.12311 2.19945 7.9067C0.999763 6.69029 1.39966 4.25748 2.19945 3.44654C1.79955 2.23013 2.59934 1.41919 2.59934 1.41919C2.59934 1.41919 3.79903 1.41919 4.59882 2.23013C5.39861 1.82466 7.39808 1.82466 8.19787 2.23013C8.99766 1.41919 10.1973 1.41919 10.1973 1.41919C10.1973 1.41919 10.9971 2.23013 10.5972 3.44654C11.397 4.25748 11.7969 6.69029 10.5972 7.9067C9.39755 9.12311 7.79797 9.12311 7.79797 9.12311C8.59776 9.93405 8.19787 11.5559 8.19787 11.5559M4.19892 11.1505C2.99924 11.5559 1.79955 10.745 1.39966 10.3395" stroke="#6B7280" stroke-width="1.5" stroke-linecap="round" stroke-linejoin="round"/>
</g>
<defs>
<clipPath id="clip0_63_588">
<rect width="12.7966" height="12.975" fill="white"/>
</clipPath>
</defs>
</svg>
