<svg width="54" height="54" viewBox="0 0 54 54" fill="none" xmlns="http://www.w3.org/2000/svg">
<path d="M19.75 15.375H35.7917L41.4821 23.5023L27.7708 43.0833L14.0596 23.5023L19.75 15.375ZM25.8196 16.8333L23.3433 22.6667H32.1983L29.7221 16.8333H25.8196ZM23.1435 24.125L27.7708 38.3642L32.3967 24.125H23.145H23.1435ZM16.425 22.6667H21.7596L24.2358 16.8333H20.5083L16.425 22.6667ZM16.2762 24.125L26.2294 38.3394L21.6108 24.125H16.2762ZM39.1167 22.6667L35.0333 16.8333H31.3058L33.7821 22.6667H39.1167ZM39.2654 24.125H33.9308L29.3123 38.3394L39.2654 24.125Z" fill="#B13B49"/>
<circle cx="27" cy="27" r="26.5" stroke="#B13B49" stroke-dasharray="5 5"/>
</svg>
