<svg width="13" height="13" viewBox="0 0 13 13" fill="none" xmlns="http://www.w3.org/2000/svg">
<path d="M10.6667 11.8984H9.77598C9.49309 11.8984 9.22178 11.7844 9.02174 11.5816C8.8217 11.3787 8.70932 11.1036 8.70932 10.8167V7.91245C8.71408 7.79855 8.68013 7.68644 8.61315 7.59489C8.54616 7.50333 8.4502 7.43788 8.34132 7.40948C8.27797 7.3997 8.2133 7.40381 8.15165 7.42154C8.09001 7.43926 8.03284 7.47019 7.98398 7.51224C7.93371 7.55551 7.89334 7.60938 7.86571 7.67009C7.83807 7.73081 7.82384 7.79691 7.82398 7.86378V10.8167C7.82398 11.1036 7.7116 11.3787 7.51157 11.5816C7.31153 11.7844 7.04022 11.8984 6.75732 11.8984H5.86665C5.58375 11.8984 5.31244 11.7844 5.1124 11.5816C4.91237 11.3787 4.79998 11.1036 4.79998 10.8167V7.86378C4.79998 6.93143 5.16522 6.03727 5.81535 5.378C6.46547 4.71873 7.34723 4.34836 8.26665 4.34836C9.18607 4.34836 10.0678 4.71873 10.718 5.378C11.3681 6.03727 11.7333 6.93143 11.7333 7.86378V10.8167C11.7333 11.1036 11.6209 11.3787 11.4209 11.5816C11.2209 11.7844 10.9495 11.8984 10.6667 11.8984ZM8.26665 6.3224C8.35012 6.31706 8.43385 6.31706 8.51732 6.3224C8.87538 6.39225 9.19776 6.58771 9.42792 6.8745C9.65807 7.16129 9.7813 7.5211 9.77598 7.89082V10.8167H10.6667V7.86378C10.6667 7.21831 10.4138 6.59927 9.96371 6.14286C9.51362 5.68644 8.90317 5.43003 8.26665 5.43003C7.63013 5.43003 7.01968 5.68644 6.5696 6.14286C6.11951 6.59927 5.86665 7.21831 5.86665 7.86378V10.8167H6.75732V7.86378C6.75731 7.45685 6.91599 7.06642 7.19874 6.77767C7.48149 6.48891 7.86537 6.32526 8.26665 6.3224ZM3.19998 11.8984H2.13332C1.85042 11.8984 1.57911 11.7844 1.37907 11.5816C1.17903 11.3787 1.06665 11.1036 1.06665 10.8167V5.40839C1.06665 5.12152 1.17903 4.84639 1.37907 4.64354C1.57911 4.44069 1.85042 4.32673 2.13332 4.32673H3.19998C3.48288 4.32673 3.75419 4.44069 3.95423 4.64354C4.15427 4.84639 4.26665 5.12152 4.26665 5.40839V10.8167C4.26665 11.1036 4.15427 11.3787 3.95423 11.5816C3.75419 11.7844 3.48288 11.8984 3.19998 11.8984ZM2.13332 5.40839V10.8167H3.19998V5.40839H2.13332ZM2.66665 3.78589C2.3502 3.78589 2.04086 3.69074 1.77774 3.51245C1.51462 3.33417 1.30954 3.08077 1.18844 2.7843C1.06734 2.48783 1.03566 2.16159 1.09739 1.84686C1.15913 1.53213 1.31152 1.24302 1.53528 1.01611C1.75904 0.789203 2.04414 0.634675 2.35451 0.57207C2.66488 0.509466 2.98658 0.541597 3.27894 0.6644C3.57131 0.787203 3.82119 0.995163 3.997 1.26198C4.17281 1.5288 4.26665 1.84249 4.26665 2.16339C4.26665 2.59371 4.09808 3.0064 3.79802 3.31068C3.49796 3.61495 3.091 3.78589 2.66665 3.78589ZM2.66665 1.62256C2.56117 1.62256 2.45805 1.65428 2.37035 1.71371C2.28264 1.77314 2.21428 1.8576 2.17392 1.95643C2.13355 2.05525 2.12299 2.16399 2.14357 2.26891C2.16414 2.37382 2.21494 2.47018 2.28953 2.54582C2.36412 2.62146 2.45915 2.67297 2.5626 2.69384C2.66606 2.7147 2.7733 2.70399 2.87075 2.66306C2.9682 2.62212 3.0515 2.5528 3.1101 2.46387C3.1687 2.37493 3.19998 2.27036 3.19998 2.16339C3.19998 2.01996 3.14379 1.88239 3.04377 1.78097C2.94376 1.67954 2.8081 1.62256 2.66665 1.62256Z" fill="#6B7280"/>
</svg>
