<svg width="13" height="13" viewBox="0 0 13 13" fill="none" xmlns="http://www.w3.org/2000/svg">
<g clip-path="url(#clip0_63_584)">
<path fill-rule="evenodd" clip-rule="evenodd" d="M6.17051 4.06204C6.17051 2.56818 7.36486 1.35718 8.83818 1.35718C9.70324 1.35718 10.3934 1.77151 10.8558 2.37355C11.3449 2.27191 11.8137 2.08801 12.2429 1.82947C12.0767 2.35384 11.7288 2.79941 11.2636 3.08372L11.2653 3.08632C11.7069 3.03221 12.1382 2.91181 12.5449 2.72907L12.5441 2.7308C12.2566 3.16763 11.8957 3.55255 11.4794 3.86655C11.5016 4.01965 11.5135 4.17276 11.5135 4.325C11.5135 7.51426 9.11715 11.2234 4.70999 11.2234C3.41045 11.2245 2.13809 10.8462 1.04504 10.1335C0.993576 10.1 0.949818 10.0557 0.916729 10.0035C0.88364 9.95141 0.861993 9.89267 0.853255 9.83131C0.844517 9.76994 0.848892 9.70739 0.866085 9.64789C0.883277 9.5884 0.912885 9.53334 0.9529 9.48646C0.990953 9.42232 1.04644 9.37065 1.11271 9.33767C1.17899 9.30468 1.25324 9.29177 1.32656 9.30049C2.10801 9.39391 2.88775 9.29703 3.57621 8.99255C3.23664 8.84042 2.93263 8.6172 2.68416 8.33753C2.43568 8.05786 2.24835 7.72807 2.13446 7.3698C2.1134 7.30317 2.11044 7.232 2.12591 7.16381C2.14137 7.09561 2.17468 7.0329 2.22233 6.98228C1.94196 6.7328 1.71739 6.42548 1.56364 6.08088C1.40989 5.73628 1.33052 5.36235 1.33083 4.98413V4.95472C1.33081 4.86423 1.36188 4.77655 1.41871 4.70678C1.47554 4.637 1.55457 4.58948 1.64221 4.57239C1.44879 4.19393 1.34813 3.7738 1.34874 3.34755C1.34874 2.94273 1.3513 2.43237 1.63197 1.97219C1.66196 1.92344 1.70222 1.88203 1.74986 1.85092C1.79751 1.81981 1.85135 1.79978 1.90753 1.79227C1.98899 1.76622 2.07629 1.76557 2.15812 1.7904C2.23995 1.81523 2.31254 1.8644 2.3665 1.93154C3.31748 3.11771 4.67765 3.89293 6.17137 4.1001V4.06204H6.17051ZM4.70999 10.3584C4.05727 10.3589 3.40897 10.2498 2.79135 10.0357C3.53423 9.91149 4.23493 9.60174 4.83028 9.13441C4.89267 9.08478 4.93838 9.01678 4.96112 8.93975C4.98386 8.86272 4.98251 8.78044 4.95727 8.70422C4.93202 8.628 4.88412 8.56157 4.82013 8.51407C4.75615 8.46657 4.67923 8.44033 4.59994 8.43895C4.31433 8.43374 4.03377 8.3617 3.78013 8.22847C3.5265 8.09523 3.30664 7.90439 3.13771 7.67082C3.2998 7.65785 3.45848 7.6293 3.61204 7.58778C3.69575 7.56509 3.76942 7.51436 3.82109 7.44383C3.87275 7.37329 3.89936 7.28712 3.89659 7.1993C3.89382 7.11149 3.86184 7.02721 3.80584 6.96017C3.74984 6.89313 3.67312 6.84727 3.58815 6.83004C3.26359 6.76337 2.96248 6.61004 2.71592 6.38589C2.46936 6.16175 2.28629 5.87491 2.18564 5.55503C2.35626 5.59655 2.53456 5.62164 2.71713 5.62769C2.80056 5.63054 2.88263 5.60573 2.95091 5.55704C3.01918 5.50834 3.06995 5.43841 3.0955 5.35783C3.12106 5.27726 3.12002 5.19043 3.09254 5.11051C3.06505 5.03059 3.01263 4.96193 2.9432 4.91493C2.68864 4.74297 2.4799 4.50992 2.33554 4.23649C2.19117 3.96305 2.11565 3.6577 2.11569 3.34755C2.11569 3.20223 2.11825 3.07334 2.12678 2.9557C3.32051 4.19091 4.92942 4.92474 6.6329 5.01094C6.69868 5.01434 6.76434 5.00224 6.82474 4.97559C6.88513 4.94895 6.93863 4.90849 6.98102 4.85737C7.02341 4.80626 7.05356 4.74589 7.06909 4.68099C7.08462 4.61609 7.08512 4.54842 7.07054 4.48329C7.00789 4.2132 7.00629 3.93223 7.06588 3.66142C7.12546 3.39061 7.24468 3.13698 7.41462 2.9195C7.58456 2.70201 7.80081 2.52632 8.04718 2.40556C8.29356 2.28481 8.56368 2.22211 8.83733 2.22218C9.89007 2.22218 10.6596 3.21088 10.6596 4.32586C10.6596 7.14231 8.54727 10.3584 4.70914 10.3584H4.70999Z" fill="#6B7280"/>
</g>
<defs>
<clipPath id="clip0_63_584">
<rect width="12.7966" height="12.975" fill="white"/>
</clipPath>
</defs>
</svg>
